<mxfile host="Electron" agent="Mozilla/5.0 (Windows NT 10.0; Win64; x64) AppleWebKit/537.36 (KHTML, like Gecko) draw.io/26.1.1 Chrome/132.0.6834.210 Electron/34.3.3 Safari/537.36" version="26.1.1" pages="4">
  <diagram name="Page-1" id="rMq3ZtJR2XMmCnFed6lH">
    <mxGraphModel dx="1838" dy="1069" grid="1" gridSize="10" guides="1" tooltips="1" connect="1" arrows="1" fold="1" page="1" pageScale="1" pageWidth="850" pageHeight="1100" math="0" shadow="0">
      <root>
        <mxCell id="0" />
        <mxCell id="1" parent="0" />
        <mxCell id="CXlBdKXkezG6XsXyVeCY-11" style="rounded=0;orthogonalLoop=1;jettySize=auto;html=1;exitX=1;exitY=0.25;exitDx=0;exitDy=0;entryX=0;entryY=0.5;entryDx=0;entryDy=0;strokeColor=default;strokeWidth=3;align=center;verticalAlign=middle;fontFamily=Helvetica;fontSize=11;fontColor=default;labelBackgroundColor=default;endArrow=classic;" edge="1" parent="1" source="CXlBdKXkezG6XsXyVeCY-1" target="CXlBdKXkezG6XsXyVeCY-5">
          <mxGeometry relative="1" as="geometry" />
        </mxCell>
        <mxCell id="CXlBdKXkezG6XsXyVeCY-1" value="Write" style="text;html=1;align=center;verticalAlign=middle;whiteSpace=wrap;rounded=0;fontSize=32;" vertex="1" parent="1">
          <mxGeometry x="40" y="400" width="100" height="30" as="geometry" />
        </mxCell>
        <mxCell id="CXlBdKXkezG6XsXyVeCY-7" style="edgeStyle=orthogonalEdgeStyle;rounded=0;orthogonalLoop=1;jettySize=auto;html=1;exitX=1;exitY=0.5;exitDx=0;exitDy=0;entryX=0;entryY=0.5;entryDx=0;entryDy=0;strokeWidth=3;" edge="1" parent="1" source="CXlBdKXkezG6XsXyVeCY-3" target="CXlBdKXkezG6XsXyVeCY-4">
          <mxGeometry relative="1" as="geometry" />
        </mxCell>
        <mxCell id="CXlBdKXkezG6XsXyVeCY-3" value="Think" style="text;html=1;align=center;verticalAlign=middle;whiteSpace=wrap;rounded=0;fontSize=32;" vertex="1" parent="1">
          <mxGeometry x="40" y="460" width="100" height="30" as="geometry" />
        </mxCell>
        <mxCell id="CXlBdKXkezG6XsXyVeCY-4" value="World" style="text;html=1;align=center;verticalAlign=middle;whiteSpace=wrap;rounded=0;fontSize=32;" vertex="1" parent="1">
          <mxGeometry x="380" y="460" width="100" height="30" as="geometry" />
        </mxCell>
        <mxCell id="CXlBdKXkezG6XsXyVeCY-9" style="edgeStyle=orthogonalEdgeStyle;rounded=0;orthogonalLoop=1;jettySize=auto;html=1;exitX=0.5;exitY=1;exitDx=0;exitDy=0;entryX=0.5;entryY=0;entryDx=0;entryDy=0;strokeColor=default;strokeWidth=3;align=center;verticalAlign=middle;fontFamily=Helvetica;fontSize=11;fontColor=default;labelBackgroundColor=default;endArrow=classic;" edge="1" parent="1" source="CXlBdKXkezG6XsXyVeCY-5" target="CXlBdKXkezG6XsXyVeCY-4">
          <mxGeometry relative="1" as="geometry" />
        </mxCell>
        <mxCell id="CXlBdKXkezG6XsXyVeCY-5" value="Text" style="text;html=1;align=center;verticalAlign=middle;whiteSpace=wrap;rounded=0;fontSize=32;" vertex="1" parent="1">
          <mxGeometry x="395" y="308" width="70" height="30" as="geometry" />
        </mxCell>
        <mxCell id="CXlBdKXkezG6XsXyVeCY-10" style="edgeStyle=orthogonalEdgeStyle;rounded=0;orthogonalLoop=1;jettySize=auto;html=1;exitX=0.5;exitY=1;exitDx=0;exitDy=0;entryX=0.5;entryY=0;entryDx=0;entryDy=0;strokeColor=default;strokeWidth=3;align=center;verticalAlign=middle;fontFamily=Helvetica;fontSize=11;fontColor=default;labelBackgroundColor=default;endArrow=classic;" edge="1" parent="1" source="CXlBdKXkezG6XsXyVeCY-6" target="CXlBdKXkezG6XsXyVeCY-5">
          <mxGeometry relative="1" as="geometry" />
        </mxCell>
        <mxCell id="CXlBdKXkezG6XsXyVeCY-15" style="edgeStyle=orthogonalEdgeStyle;rounded=0;orthogonalLoop=1;jettySize=auto;html=1;exitX=0.333;exitY=0.995;exitDx=0;exitDy=0;entryX=0.5;entryY=0;entryDx=0;entryDy=0;dashed=1;fillColor=#f8cecc;strokeColor=#b85450;strokeWidth=3;curved=1;exitPerimeter=0;" edge="1" parent="1" source="CXlBdKXkezG6XsXyVeCY-6" target="CXlBdKXkezG6XsXyVeCY-1">
          <mxGeometry relative="1" as="geometry">
            <Array as="points">
              <mxPoint x="410" y="190" />
              <mxPoint x="410" y="330" />
              <mxPoint x="90" y="330" />
            </Array>
          </mxGeometry>
        </mxCell>
        <mxCell id="CXlBdKXkezG6XsXyVeCY-6" value="Readers" style="text;html=1;align=center;verticalAlign=middle;whiteSpace=wrap;rounded=0;fontSize=32;fillColor=none;strokeColor=#b85450;strokeWidth=3;" vertex="1" parent="1">
          <mxGeometry x="365" y="150" width="130" height="40" as="geometry" />
        </mxCell>
        <mxCell id="CXlBdKXkezG6XsXyVeCY-8" value="About" style="text;html=1;align=center;verticalAlign=middle;whiteSpace=wrap;rounded=0;fontSize=32;" vertex="1" parent="1">
          <mxGeometry x="220" y="490" width="100" height="30" as="geometry" />
        </mxCell>
        <mxCell id="CXlBdKXkezG6XsXyVeCY-12" value="" style="endArrow=none;html=1;rounded=0;strokeWidth=3;dashed=1;" edge="1" parent="1">
          <mxGeometry width="50" height="50" relative="1" as="geometry">
            <mxPoint x="20" y="445" as="sourcePoint" />
            <mxPoint x="160" y="445" as="targetPoint" />
          </mxGeometry>
        </mxCell>
        <mxCell id="CXlBdKXkezG6XsXyVeCY-14" style="rounded=0;orthogonalLoop=1;jettySize=auto;html=1;exitX=1;exitY=0;exitDx=0;exitDy=0;entryX=0;entryY=0.5;entryDx=0;entryDy=0;strokeColor=#b85450;strokeWidth=3;align=center;verticalAlign=middle;fontFamily=Helvetica;fontSize=11;fontColor=default;labelBackgroundColor=default;endArrow=classic;curved=1;fillColor=#f8cecc;" edge="1" parent="1" source="CXlBdKXkezG6XsXyVeCY-13" target="CXlBdKXkezG6XsXyVeCY-6">
          <mxGeometry relative="1" as="geometry">
            <Array as="points">
              <mxPoint x="260" y="170" />
            </Array>
          </mxGeometry>
        </mxCell>
        <mxCell id="CXlBdKXkezG6XsXyVeCY-13" value="value is here" style="text;html=1;align=center;verticalAlign=middle;whiteSpace=wrap;rounded=0;fontSize=32;fontColor=#CC0000;" vertex="1" parent="1">
          <mxGeometry x="50" y="250" width="120" height="70" as="geometry" />
        </mxCell>
        <mxCell id="CXlBdKXkezG6XsXyVeCY-18" value="&lt;h1 style=&quot;margin-top: 0px;&quot;&gt;&lt;font style=&quot;font-size: 30px;&quot;&gt;Writing patterns:&lt;/font&gt;&lt;/h1&gt;&lt;div&gt;&lt;ul&gt;&lt;li&gt;&lt;font style=&quot;font-size: 22px;&quot;&gt;You generate the text on the horizontal axis&lt;br&gt;&lt;br&gt;&lt;/font&gt;&lt;/li&gt;&lt;li&gt;&lt;font style=&quot;font-size: 22px;&quot;&gt;Whether it does its job is on the vertical axis.&lt;/font&gt;&lt;/li&gt;&lt;/ul&gt;&lt;div&gt;&lt;br&gt;&lt;/div&gt;&lt;/div&gt;" style="text;html=1;whiteSpace=wrap;overflow=hidden;rounded=0;fontSize=16;" vertex="1" parent="1">
          <mxGeometry x="520" y="150" width="290" height="230" as="geometry" />
        </mxCell>
      </root>
    </mxGraphModel>
  </diagram>
  <diagram id="8ABdztz2oW0t69ul2RG8" name="Page-2">
    <mxGraphModel dx="1302" dy="758" grid="1" gridSize="10" guides="1" tooltips="1" connect="1" arrows="1" fold="1" page="1" pageScale="1" pageWidth="850" pageHeight="1100" math="0" shadow="0">
      <root>
        <mxCell id="0" />
        <mxCell id="1" parent="0" />
        <mxCell id="AWg5BlBhy-4jsEtF-sd0-1" value="" style="endArrow=block;html=1;rounded=0;endFill=1;strokeWidth=4;" edge="1" parent="1">
          <mxGeometry width="50" height="50" relative="1" as="geometry">
            <mxPoint x="120" y="480" as="sourcePoint" />
            <mxPoint x="120" y="240" as="targetPoint" />
          </mxGeometry>
        </mxCell>
        <mxCell id="ORMrb5oWbUUxn7CEYWto-2" value="" style="endArrow=classic;html=1;rounded=0;fillColor=#f5f5f5;strokeColor=#666666;strokeWidth=4;" edge="1" parent="1">
          <mxGeometry width="50" height="50" relative="1" as="geometry">
            <mxPoint x="120" y="480" as="sourcePoint" />
            <mxPoint x="330" y="270" as="targetPoint" />
          </mxGeometry>
        </mxCell>
        <mxCell id="ORMrb5oWbUUxn7CEYWto-3" value="" style="endArrow=none;html=1;rounded=0;strokeWidth=4;fillColor=#f5f5f5;strokeColor=#666666;" edge="1" parent="1">
          <mxGeometry width="50" height="50" relative="1" as="geometry">
            <mxPoint x="160" y="480" as="sourcePoint" />
            <mxPoint x="160" y="440" as="targetPoint" />
          </mxGeometry>
        </mxCell>
        <mxCell id="ORMrb5oWbUUxn7CEYWto-4" value="" style="endArrow=none;html=1;rounded=0;strokeWidth=4;fillColor=#f5f5f5;strokeColor=#666666;" edge="1" parent="1">
          <mxGeometry width="50" height="50" relative="1" as="geometry">
            <mxPoint x="190" y="480" as="sourcePoint" />
            <mxPoint x="190" y="410" as="targetPoint" />
          </mxGeometry>
        </mxCell>
        <mxCell id="ORMrb5oWbUUxn7CEYWto-5" value="" style="endArrow=none;html=1;rounded=0;strokeWidth=4;fillColor=#f5f5f5;strokeColor=#666666;" edge="1" parent="1">
          <mxGeometry width="50" height="50" relative="1" as="geometry">
            <mxPoint x="220" y="480" as="sourcePoint" />
            <mxPoint x="220" y="380" as="targetPoint" />
          </mxGeometry>
        </mxCell>
        <mxCell id="ORMrb5oWbUUxn7CEYWto-6" value="" style="endArrow=none;html=1;rounded=0;strokeWidth=4;fillColor=#f5f5f5;strokeColor=#666666;" edge="1" parent="1">
          <mxGeometry width="50" height="50" relative="1" as="geometry">
            <mxPoint x="250" y="480" as="sourcePoint" />
            <mxPoint x="250" y="350" as="targetPoint" />
          </mxGeometry>
        </mxCell>
        <mxCell id="ORMrb5oWbUUxn7CEYWto-7" value="" style="endArrow=none;html=1;rounded=0;strokeWidth=4;fillColor=#f5f5f5;strokeColor=#666666;" edge="1" parent="1">
          <mxGeometry width="50" height="50" relative="1" as="geometry">
            <mxPoint x="280" y="480" as="sourcePoint" />
            <mxPoint x="280" y="320" as="targetPoint" />
          </mxGeometry>
        </mxCell>
        <mxCell id="ORMrb5oWbUUxn7CEYWto-8" value="" style="endArrow=none;html=1;rounded=0;strokeWidth=4;fillColor=#f5f5f5;strokeColor=#666666;" edge="1" parent="1">
          <mxGeometry width="50" height="50" relative="1" as="geometry">
            <mxPoint x="310" y="480" as="sourcePoint" />
            <mxPoint x="310" y="290" as="targetPoint" />
          </mxGeometry>
        </mxCell>
        <mxCell id="ORMrb5oWbUUxn7CEYWto-1" value="" style="endArrow=block;html=1;rounded=0;endFill=1;strokeWidth=4;" edge="1" parent="1">
          <mxGeometry width="50" height="50" relative="1" as="geometry">
            <mxPoint x="120" y="480" as="sourcePoint" />
            <mxPoint x="360" y="480" as="targetPoint" />
          </mxGeometry>
        </mxCell>
        <mxCell id="oFUKeHLnOrgBsEObfUi7-1" value="Keep on adding to the pool of knowledge" style="text;html=1;align=left;verticalAlign=middle;whiteSpace=wrap;rounded=0;fontSize=22;" vertex="1" parent="1">
          <mxGeometry x="335" y="320" width="165" height="90" as="geometry" />
        </mxCell>
        <mxCell id="oFUKeHLnOrgBsEObfUi7-2" value="WRONG" style="text;html=1;align=left;verticalAlign=middle;whiteSpace=wrap;rounded=0;fontSize=32;" vertex="1" parent="1">
          <mxGeometry x="120" y="200" width="140" height="30" as="geometry" />
        </mxCell>
        <mxCell id="oFUKeHLnOrgBsEObfUi7-3" value="" style="ellipse;whiteSpace=wrap;html=1;aspect=fixed;fillColor=none;strokeWidth=4;" vertex="1" parent="1">
          <mxGeometry x="550" y="260" width="215" height="215" as="geometry" />
        </mxCell>
        <mxCell id="oFUKeHLnOrgBsEObfUi7-4" value="" style="endArrow=block;html=1;rounded=0;entryX=0.081;entryY=0.792;entryDx=0;entryDy=0;entryPerimeter=0;strokeColor=default;strokeWidth=4;align=center;verticalAlign=middle;fontFamily=Helvetica;fontSize=11;fontColor=default;labelBackgroundColor=default;endFill=1;" edge="1" parent="1" target="oFUKeHLnOrgBsEObfUi7-3">
          <mxGeometry width="50" height="50" relative="1" as="geometry">
            <mxPoint x="510" y="480" as="sourcePoint" />
            <mxPoint x="590" y="425" as="targetPoint" />
          </mxGeometry>
        </mxCell>
        <mxCell id="oFUKeHLnOrgBsEObfUi7-5" value="" style="endArrow=block;html=1;rounded=0;entryX=0.081;entryY=0.792;entryDx=0;entryDy=0;entryPerimeter=0;strokeColor=default;strokeWidth=4;align=center;verticalAlign=middle;fontFamily=Helvetica;fontSize=11;fontColor=default;labelBackgroundColor=default;endFill=1;" edge="1" parent="1">
          <mxGeometry width="50" height="50" relative="1" as="geometry">
            <mxPoint x="730" y="290" as="sourcePoint" />
            <mxPoint x="787" y="240" as="targetPoint" />
          </mxGeometry>
        </mxCell>
        <mxCell id="oFUKeHLnOrgBsEObfUi7-6" value="RIGHT" style="text;html=1;align=left;verticalAlign=middle;whiteSpace=wrap;rounded=0;fontSize=32;" vertex="1" parent="1">
          <mxGeometry x="560" y="200" width="140" height="30" as="geometry" />
        </mxCell>
        <mxCell id="oFUKeHLnOrgBsEObfUi7-8" value="Boundary is permeable" style="text;html=1;align=left;verticalAlign=middle;whiteSpace=wrap;rounded=0;fontSize=22;" vertex="1" parent="1">
          <mxGeometry x="780" y="340" width="165" height="90" as="geometry" />
        </mxCell>
        <mxCell id="oFUKeHLnOrgBsEObfUi7-9" value="" style="shape=umlActor;verticalLabelPosition=bottom;verticalAlign=top;html=1;outlineConnect=0;" vertex="1" parent="1">
          <mxGeometry x="650" y="280" width="30" height="60" as="geometry" />
        </mxCell>
        <mxCell id="oFUKeHLnOrgBsEObfUi7-10" value="" style="shape=umlActor;verticalLabelPosition=bottom;verticalAlign=top;html=1;outlineConnect=0;" vertex="1" parent="1">
          <mxGeometry x="600" y="310" width="30" height="60" as="geometry" />
        </mxCell>
        <mxCell id="oFUKeHLnOrgBsEObfUi7-11" value="" style="shape=umlActor;verticalLabelPosition=bottom;verticalAlign=top;html=1;outlineConnect=0;" vertex="1" parent="1">
          <mxGeometry x="570" y="360" width="30" height="60" as="geometry" />
        </mxCell>
        <mxCell id="oFUKeHLnOrgBsEObfUi7-12" value="" style="shape=umlActor;verticalLabelPosition=bottom;verticalAlign=top;html=1;outlineConnect=0;" vertex="1" parent="1">
          <mxGeometry x="615" y="380" width="30" height="60" as="geometry" />
        </mxCell>
        <mxCell id="oFUKeHLnOrgBsEObfUi7-13" value="" style="shape=umlActor;verticalLabelPosition=bottom;verticalAlign=top;html=1;outlineConnect=0;" vertex="1" parent="1">
          <mxGeometry x="700" y="370" width="30" height="60" as="geometry" />
        </mxCell>
        <mxCell id="oFUKeHLnOrgBsEObfUi7-14" value="" style="curved=1;endArrow=block;html=1;rounded=0;strokeColor=#B3B3B3;strokeWidth=3;align=center;verticalAlign=middle;fontFamily=Helvetica;fontSize=11;fontColor=default;labelBackgroundColor=default;endFill=1;fillColor=#f5f5f5;" edge="1" parent="1">
          <mxGeometry width="50" height="50" relative="1" as="geometry">
            <mxPoint x="774" y="200" as="sourcePoint" />
            <mxPoint x="690.0034261953755" y="297.0745814094778" as="targetPoint" />
            <Array as="points">
              <mxPoint x="764.15" y="240" />
              <mxPoint x="734.15" y="200" />
              <mxPoint x="734.15" y="250" />
              <mxPoint x="714.15" y="250" />
              <mxPoint x="704.15" y="260" />
            </Array>
          </mxGeometry>
        </mxCell>
        <mxCell id="oFUKeHLnOrgBsEObfUi7-15" value="" style="curved=1;endArrow=block;html=1;rounded=0;strokeColor=#B3B3B3;strokeWidth=3;align=center;verticalAlign=middle;fontFamily=Helvetica;fontSize=11;fontColor=default;labelBackgroundColor=default;endFill=1;fillColor=#f5f5f5;" edge="1" parent="1">
          <mxGeometry width="50" height="50" relative="1" as="geometry">
            <mxPoint x="670" y="420" as="sourcePoint" />
            <mxPoint x="580.0034261953755" y="507.0745814094778" as="targetPoint" />
            <Array as="points">
              <mxPoint x="654.15" y="450" />
              <mxPoint x="640" y="440" />
              <mxPoint x="640" y="460" />
              <mxPoint x="624.15" y="460" />
              <mxPoint x="604" y="440" />
              <mxPoint x="594.15" y="470" />
            </Array>
          </mxGeometry>
        </mxCell>
        <mxCell id="oFUKeHLnOrgBsEObfUi7-16" value="" style="curved=1;endArrow=block;html=1;rounded=0;strokeColor=#B3B3B3;strokeWidth=4;align=center;verticalAlign=middle;fontFamily=Helvetica;fontSize=11;fontColor=default;labelBackgroundColor=default;endFill=1;fillColor=#f5f5f5;" edge="1" parent="1">
          <mxGeometry width="50" height="50" relative="1" as="geometry">
            <mxPoint x="600" y="310" as="sourcePoint" />
            <mxPoint x="530" y="260" as="targetPoint" />
            <Array as="points">
              <mxPoint x="590" y="300" />
              <mxPoint x="550" y="310" />
              <mxPoint x="590" y="270" />
              <mxPoint x="570" y="260" />
            </Array>
          </mxGeometry>
        </mxCell>
        <mxCell id="oFUKeHLnOrgBsEObfUi7-17" value="" style="curved=1;endArrow=block;html=1;rounded=0;strokeColor=#B3B3B3;strokeWidth=4;align=center;verticalAlign=middle;fontFamily=Helvetica;fontSize=11;fontColor=default;labelBackgroundColor=default;endFill=1;fillColor=#f5f5f5;" edge="1" parent="1">
          <mxGeometry width="50" height="50" relative="1" as="geometry">
            <mxPoint x="790" y="500" as="sourcePoint" />
            <mxPoint x="690" y="440" as="targetPoint" />
            <Array as="points">
              <mxPoint x="750" y="480" />
              <mxPoint x="750" y="450" />
              <mxPoint x="720" y="460" />
              <mxPoint x="730" y="440" />
            </Array>
          </mxGeometry>
        </mxCell>
      </root>
    </mxGraphModel>
  </diagram>
  <diagram id="XcBxuNwCZYuhtQrgArBa" name="Page-3">
    <mxGraphModel dx="1077" dy="627" grid="1" gridSize="10" guides="1" tooltips="1" connect="1" arrows="1" fold="1" page="1" pageScale="1" pageWidth="850" pageHeight="1100" math="0" shadow="0">
      <root>
        <mxCell id="0" />
        <mxCell id="1" parent="0" />
        <mxCell id="WlPweDlKSk4vU2cz_zM5-1" value="&amp;nbsp; Anomaly&lt;div&gt;&amp;nbsp; Inconsistent&lt;/div&gt;&lt;div&gt;&amp;nbsp; But&lt;/div&gt;&lt;div&gt;&amp;nbsp; However&lt;/div&gt;&lt;div&gt;&amp;nbsp; Although&lt;/div&gt;" style="text;html=1;align=left;verticalAlign=middle;whiteSpace=wrap;rounded=0;fontSize=22;strokeWidth=3;strokeColor=default;" vertex="1" parent="1">
          <mxGeometry x="240" y="290" width="165" height="150" as="geometry" />
        </mxCell>
        <mxCell id="tV7CrGdwHQAJs6KruRdW-1" value="Instability" style="text;html=1;align=left;verticalAlign=middle;whiteSpace=wrap;rounded=0;fontSize=22;" vertex="1" parent="1">
          <mxGeometry x="450" y="290" width="150" height="30" as="geometry" />
        </mxCell>
        <mxCell id="tV7CrGdwHQAJs6KruRdW-2" value="Tension&lt;div&gt;Challenge&lt;/div&gt;&lt;div&gt;Contradictions&lt;/div&gt;" style="text;html=1;align=left;verticalAlign=middle;whiteSpace=wrap;rounded=0;fontSize=22;" vertex="1" parent="1">
          <mxGeometry x="475" y="340" width="150" height="90" as="geometry" />
        </mxCell>
        <mxCell id="tV7CrGdwHQAJs6KruRdW-4" style="edgeStyle=orthogonalEdgeStyle;rounded=0;orthogonalLoop=1;jettySize=auto;html=1;exitX=0.1;exitY=0.5;exitDx=0;exitDy=0;exitPerimeter=0;entryX=0;entryY=0.5;entryDx=0;entryDy=0;strokeColor=default;strokeWidth=2;align=center;verticalAlign=middle;fontFamily=Helvetica;fontSize=11;fontColor=default;labelBackgroundColor=default;endArrow=block;endFill=1;curved=1;" edge="1" parent="1" target="tV7CrGdwHQAJs6KruRdW-1">
          <mxGeometry relative="1" as="geometry">
            <mxPoint x="452" y="385" as="sourcePoint" />
            <Array as="points">
              <mxPoint x="430" y="385" />
              <mxPoint x="430" y="305" />
            </Array>
          </mxGeometry>
        </mxCell>
        <mxCell id="tV7CrGdwHQAJs6KruRdW-5" value="" style="shape=curlyBracket;whiteSpace=wrap;html=1;rounded=1;labelPosition=left;verticalLabelPosition=middle;align=right;verticalAlign=middle;strokeWidth=3;" vertex="1" parent="1">
          <mxGeometry x="454" y="350" width="20" height="70" as="geometry" />
        </mxCell>
      </root>
    </mxGraphModel>
  </diagram>
  <diagram id="Vpkse2TAz-9pETJRsxG7" name="Page-4">
    <mxGraphModel dx="744" dy="433" grid="1" gridSize="10" guides="1" tooltips="1" connect="1" arrows="1" fold="1" page="1" pageScale="1" pageWidth="850" pageHeight="1100" math="0" shadow="0">
      <root>
        <mxCell id="0" />
        <mxCell id="1" parent="0" />
        <mxCell id="jYxI_swDyY6JG3ttu_id-1" value="WRONG" style="text;html=1;align=left;verticalAlign=middle;whiteSpace=wrap;rounded=0;fontSize=32;" vertex="1" parent="1">
          <mxGeometry x="120" y="200" width="140" height="30" as="geometry" />
        </mxCell>
        <mxCell id="jYxI_swDyY6JG3ttu_id-2" value="RIGHT" style="text;html=1;align=left;verticalAlign=middle;whiteSpace=wrap;rounded=0;fontSize=32;" vertex="1" parent="1">
          <mxGeometry x="430" y="200" width="140" height="30" as="geometry" />
        </mxCell>
        <mxCell id="jYxI_swDyY6JG3ttu_id-3" value="" style="shape=trapezoid;perimeter=trapezoidPerimeter;whiteSpace=wrap;html=1;fixedSize=1;fillColor=none;strokeWidth=4;size=40;" vertex="1" parent="1">
          <mxGeometry x="110" y="420" width="160" height="60" as="geometry" />
        </mxCell>
        <mxCell id="jYxI_swDyY6JG3ttu_id-4" value="" style="shape=trapezoid;perimeter=trapezoidPerimeter;whiteSpace=wrap;html=1;fixedSize=1;fillColor=none;strokeWidth=4;flipV=1;size=75;" vertex="1" parent="1">
          <mxGeometry x="75" y="240" width="230" height="140" as="geometry" />
        </mxCell>
        <mxCell id="zxtCFfOniVlrOP8KoRMD-1" value="Generalization&lt;div&gt;Background&lt;/div&gt;&lt;div&gt;Definition&lt;/div&gt;&lt;div&gt;Thesis&lt;/div&gt;" style="text;html=1;align=center;verticalAlign=middle;whiteSpace=wrap;rounded=0;fontSize=22;" vertex="1" parent="1">
          <mxGeometry x="115" y="255" width="150" height="110" as="geometry" />
        </mxCell>
        <mxCell id="zxtCFfOniVlrOP8KoRMD-2" value="" style="rounded=1;whiteSpace=wrap;html=1;arcSize=0;strokeWidth=4;" vertex="1" parent="1">
          <mxGeometry x="150" y="380" width="80" height="40" as="geometry" />
        </mxCell>
        <mxCell id="zxtCFfOniVlrOP8KoRMD-4" value="" style="endArrow=none;html=1;rounded=0;strokeWidth=5;strokeColor=#FFFFFF;" edge="1" parent="1">
          <mxGeometry width="50" height="50" relative="1" as="geometry">
            <mxPoint x="152" y="380" as="sourcePoint" />
            <mxPoint x="228" y="380" as="targetPoint" />
          </mxGeometry>
        </mxCell>
        <mxCell id="zxtCFfOniVlrOP8KoRMD-8" value="" style="endArrow=none;html=1;rounded=0;strokeWidth=5;strokeColor=#FFFFFF;" edge="1" parent="1">
          <mxGeometry width="50" height="50" relative="1" as="geometry">
            <mxPoint x="152" y="420" as="sourcePoint" />
            <mxPoint x="228" y="420" as="targetPoint" />
          </mxGeometry>
        </mxCell>
        <mxCell id="zxtCFfOniVlrOP8KoRMD-14" style="rounded=0;orthogonalLoop=1;jettySize=auto;html=1;exitX=1;exitY=0.5;exitDx=0;exitDy=0;entryX=0;entryY=0.5;entryDx=0;entryDy=0;strokeColor=default;strokeWidth=3;align=center;verticalAlign=middle;fontFamily=Helvetica;fontSize=11;fontColor=default;labelBackgroundColor=default;endArrow=block;endFill=1;" edge="1" parent="1" source="zxtCFfOniVlrOP8KoRMD-9" target="zxtCFfOniVlrOP8KoRMD-11">
          <mxGeometry relative="1" as="geometry" />
        </mxCell>
        <mxCell id="zxtCFfOniVlrOP8KoRMD-15" style="edgeStyle=orthogonalEdgeStyle;rounded=0;orthogonalLoop=1;jettySize=auto;html=1;exitX=0.5;exitY=1;exitDx=0;exitDy=0;entryX=0.5;entryY=0;entryDx=0;entryDy=0;strokeColor=default;strokeWidth=3;align=center;verticalAlign=middle;fontFamily=Helvetica;fontSize=11;fontColor=default;labelBackgroundColor=default;endArrow=block;endFill=1;" edge="1" parent="1" source="zxtCFfOniVlrOP8KoRMD-9" target="zxtCFfOniVlrOP8KoRMD-12">
          <mxGeometry relative="1" as="geometry" />
        </mxCell>
        <mxCell id="zxtCFfOniVlrOP8KoRMD-9" value="Problem" style="text;html=1;align=center;verticalAlign=middle;whiteSpace=wrap;rounded=0;fontSize=22;" vertex="1" parent="1">
          <mxGeometry x="370" y="290" width="100" height="40" as="geometry" />
        </mxCell>
        <mxCell id="zxtCFfOniVlrOP8KoRMD-10" value="Instability" style="text;html=1;align=center;verticalAlign=middle;whiteSpace=wrap;rounded=0;fontSize=22;" vertex="1" parent="1">
          <mxGeometry x="510" y="250" width="120" height="40" as="geometry" />
        </mxCell>
        <mxCell id="zxtCFfOniVlrOP8KoRMD-11" value="Cost / Benefit" style="text;html=1;align=center;verticalAlign=middle;whiteSpace=wrap;rounded=0;fontSize=22;" vertex="1" parent="1">
          <mxGeometry x="510" y="310" width="150" height="40" as="geometry" />
        </mxCell>
        <mxCell id="zxtCFfOniVlrOP8KoRMD-12" value="Solution" style="text;html=1;align=center;verticalAlign=middle;whiteSpace=wrap;rounded=0;fontSize=22;" vertex="1" parent="1">
          <mxGeometry x="370" y="380" width="100" height="30" as="geometry" />
        </mxCell>
        <mxCell id="zxtCFfOniVlrOP8KoRMD-13" style="rounded=0;orthogonalLoop=1;jettySize=auto;html=1;exitX=1;exitY=0.5;exitDx=0;exitDy=0;entryX=0.034;entryY=0.537;entryDx=0;entryDy=0;entryPerimeter=0;strokeColor=default;strokeWidth=3;align=center;verticalAlign=middle;fontFamily=Helvetica;fontSize=11;fontColor=default;labelBackgroundColor=default;endArrow=block;endFill=1;" edge="1" parent="1" source="zxtCFfOniVlrOP8KoRMD-9" target="zxtCFfOniVlrOP8KoRMD-10">
          <mxGeometry relative="1" as="geometry" />
        </mxCell>
      </root>
    </mxGraphModel>
  </diagram>
</mxfile>
